<mxfile host="app.diagrams.net" modified="2024-04-25T01:42:19.561Z" agent="Mozilla/5.0 (Windows NT 10.0; Win64; x64) AppleWebKit/537.36 (KHTML, like Gecko) Chrome/124.0.0.0 Safari/537.36 Edg/124.0.0.0" version="24.2.8" etag="VwNwoXfxmAB32QO8CAcS" type="github">
  <diagram name="Page-1" id="ldHZRNWL1SBnMb5XeR_2">
    <mxGraphModel>
      <root>
        <mxCell id="0" />
        <mxCell id="1" parent="0" />
      </root>
    </mxGraphModel>
  </diagram>
</mxfile>
